<svg viewBox="-2000 -2000 4000 4000" xmlns="http://www.w3.org/2000/svg">
<path d="M-200,500 L-200,-400 L0,-400 L0,500 z" fill="#FFFDB0" stroke="#AE5E46" stroke-width="5"/>
<text alignment-baseline="top" font-size="85" text-anchor="begin" x="-200" y="-415">
J?
</text>
<text alignment-baseline="top" font-size="85" text-anchor="begin" x="-200" y="585">
0559350810
</text>
<text alignment-baseline="middle" font-size="85" text-anchor="end" x="-85" y="-300">
1
</text>
<path d="M0,-300 L200,-300" fill="none" stroke="black" stroke-width="10"/>
<text alignment-baseline="middle" font-size="85" text-anchor="end" x="-85" y="-200">
2
</text>
<path d="M0,-200 L200,-200" fill="none" stroke="black" stroke-width="10"/>
<text alignment-baseline="middle" font-size="85" text-anchor="end" x="-85" y="-100">
3
</text>
<path d="M0,-100 L200,-100" fill="none" stroke="black" stroke-width="10"/>
<text alignment-baseline="middle" font-size="85" text-anchor="end" x="-85" y="0">
4
</text>
<path d="M0,0 L200,0" fill="none" stroke="black" stroke-width="10"/>
<text alignment-baseline="middle" font-size="85" text-anchor="end" x="-85" y="100">
5
</text>
<path d="M0,100 L200,100" fill="none" stroke="black" stroke-width="10"/>
<text alignment-baseline="middle" font-size="85" text-anchor="end" x="-85" y="200">
6
</text>
<path d="M0,200 L200,200" fill="none" stroke="black" stroke-width="10"/>
<text alignment-baseline="middle" font-size="85" text-anchor="end" x="-85" y="300">
7
</text>
<path d="M0,300 L200,300" fill="none" stroke="black" stroke-width="10"/>
<text alignment-baseline="middle" font-size="85" text-anchor="end" x="-85" y="400">
8
</text>
<path d="M0,400 L200,400" fill="none" stroke="black" stroke-width="10"/>
</svg>