<svg viewBox="-2000 -2000 4000 4000" xmlns="http://www.w3.org/2000/svg">
<path d="M-800,1400 L-800,-1200 L900,-1200 L900,1400 z" fill="#FFFDB0" stroke="#AE5E46" stroke-width="5"/>
<text alignment-baseline="top" font-size="85" text-anchor="begin" x="-800" y="-1215">
U?
</text>
<text alignment-baseline="top" font-size="85" text-anchor="begin" x="-800" y="1485">
ADS8689IPW
</text>
<text alignment-baseline="bottom" font-size="85" text-anchor="end" transform="rotate(-90, 300, 1400) translate(215 1385)" x="0" y="0">
1
</text>
<text alignment-baseline="middle" font-size="85" text-anchor="begin" transform="rotate(-90, 300, 1315) translate(300 1315)">
DGND
</text>
<path d="M300,1400 L300,1600" fill="none" stroke="black" stroke-width="10"/>
<text alignment-baseline="bottom" font-size="85" text-anchor="start" transform="rotate(-90, -200, -1200) translate(-150 -1215)" x="0" y="0">
2
</text>
<text alignment-baseline="middle" font-size="85" text-anchor="end" transform="rotate(-90, -200, -1115) translate(-200 -1115)">
AVDD
</text>
<path d="M-200,-1200 L-200,-1400" fill="none" stroke="black" stroke-width="10"/>
<text alignment-baseline="bottom" font-size="85" text-anchor="end" transform="rotate(-90, -200, 1400) translate(-285 1385)" x="0" y="0">
3
</text>
<text alignment-baseline="middle" font-size="85" text-anchor="begin" transform="rotate(-90, -200, 1315) translate(-200 1315)">
AGND
</text>
<path d="M-200,1400 L-200,1600" fill="none" stroke="black" stroke-width="10"/>
<text font-size="85" text-anchor="end" x="-885" y="-15">
4
</text>
<text alignment-baseline="middle" font-size="85" text-anchor="begin" x="-715" y="0">
REFIO
</text>
<path d="M-800,0 L-1000,0" fill="none" stroke="black" stroke-width="10"/>
<text font-size="85" text-anchor="end" x="-885" y="785">
5
</text>
<text alignment-baseline="middle" font-size="85" text-anchor="begin" x="-715" y="800">
REFGND
</text>
<path d="M-800,800 L-1000,800" fill="none" stroke="black" stroke-width="10"/>
<text font-size="85" text-anchor="end" x="-885" y="285">
6
</text>
<text alignment-baseline="middle" font-size="85" text-anchor="begin" x="-715" y="300">
REFCAP
</text>
<path d="M-800,300 L-1000,300" fill="none" stroke="black" stroke-width="10"/>
<text font-size="85" text-anchor="end" x="-885" y="-815">
7
</text>
<text alignment-baseline="middle" font-size="85" text-anchor="begin" x="-715" y="-800">
AIN_P
</text>
<path d="M-800,-800 L-1000,-800" fill="none" stroke="black" stroke-width="10"/>
<text font-size="85" text-anchor="end" x="-885" y="-415">
8
</text>
<text alignment-baseline="middle" font-size="85" text-anchor="begin" x="-715" y="-400">
AIN_GND
</text>
<path d="M-800,-400 L-1000,-400" fill="none" stroke="black" stroke-width="10"/>
<text font-size="85" text-anchor="begin" x="985" y="885">
9
</text>
<text alignment-baseline="middle" font-size="85" text-anchor="end" x="815" y="900">
~RST
</text>
<path d="M900,900 L1100,900" fill="none" stroke="black" stroke-width="10"/>
<text font-size="85" text-anchor="begin" x="985" y="685">
10
</text>
<text alignment-baseline="middle" font-size="85" text-anchor="end" x="815" y="700">
SDI
</text>
<path d="M900,700 L1100,700" fill="none" stroke="black" stroke-width="10"/>
<text font-size="85" text-anchor="begin" x="985" y="485">
11
</text>
<text alignment-baseline="middle" font-size="85" text-anchor="end" x="815" y="500">
CONVST/~CS
</text>
<path d="M900,500 L1100,500" fill="none" stroke="black" stroke-width="10"/>
<text font-size="85" text-anchor="begin" x="985" y="285">
12
</text>
<text alignment-baseline="middle" font-size="85" text-anchor="end" x="815" y="300">
SCLK
</text>
<path d="M900,300 L1100,300" fill="none" stroke="black" stroke-width="10"/>
<text font-size="85" text-anchor="begin" x="985" y="85">
13
</text>
<text alignment-baseline="middle" font-size="85" text-anchor="end" x="815" y="100">
SDO-0
</text>
<path d="M900,100 L1100,100" fill="none" stroke="black" stroke-width="10"/>
<text font-size="85" text-anchor="begin" x="985" y="-415">
14
</text>
<text alignment-baseline="middle" font-size="85" text-anchor="end" x="815" y="-400">
ALARM/SDO-1/GPO
</text>
<path d="M900,-400 L1100,-400" fill="none" stroke="black" stroke-width="10"/>
<text font-size="85" text-anchor="begin" x="985" y="-715">
15
</text>
<text alignment-baseline="middle" font-size="85" text-anchor="end" x="815" y="-700">
RVS
</text>
<path d="M900,-700 L1100,-700" fill="none" stroke="black" stroke-width="10"/>
<text alignment-baseline="bottom" font-size="85" text-anchor="start" transform="rotate(-90, 300, -1200) translate(350 -1215)" x="0" y="0">
16
</text>
<text alignment-baseline="middle" font-size="85" text-anchor="end" transform="rotate(-90, 300, -1115) translate(300 -1115)">
DVDD
</text>
<path d="M300,-1200 L300,-1400" fill="none" stroke="black" stroke-width="10"/>
</svg>