<svg viewBox="-2000 -2000 4000 4000" xmlns="http://www.w3.org/2000/svg">
<path d="M-500,700 L-500,-1200 L400,-1200 L400,700 z" fill="#FFFDB0" stroke="#AE5E46" stroke-width="5"/>
<text alignment-baseline="top" font-size="85" text-anchor="begin" x="-500" y="-1215">
U?
</text>
<text alignment-baseline="top" font-size="85" text-anchor="begin" x="-300" y="-1215">
SN74HC151QDRQ1
</text>
<text font-size="85" text-anchor="end" x="-585" y="-415">
1
</text>
<text alignment-baseline="middle" font-size="85" text-anchor="begin" x="-415" y="-400">
D3
</text>
<path d="M-500,-400 L-700,-400" fill="none" stroke="black" stroke-width="10"/>
<text font-size="85" text-anchor="end" x="-585" y="-615">
2
</text>
<text alignment-baseline="middle" font-size="85" text-anchor="begin" x="-415" y="-600">
D2
</text>
<path d="M-500,-600 L-700,-600" fill="none" stroke="black" stroke-width="10"/>
<text font-size="85" text-anchor="end" x="-585" y="-815">
3
</text>
<text alignment-baseline="middle" font-size="85" text-anchor="begin" x="-415" y="-800">
D1
</text>
<path d="M-500,-800 L-700,-800" fill="none" stroke="black" stroke-width="10"/>
<text font-size="85" text-anchor="end" x="-585" y="-1015">
4
</text>
<text alignment-baseline="middle" font-size="85" text-anchor="begin" x="-415" y="-1000">
D0
</text>
<path d="M-500,-1000 L-700,-1000" fill="none" stroke="black" stroke-width="10"/>
<text font-size="85" text-anchor="begin" x="485" y="-715">
5
</text>
<text alignment-baseline="middle" font-size="85" text-anchor="end" x="315" y="-700">
Y
</text>
<path d="M400,-700 L600,-700" fill="none" stroke="black" stroke-width="10"/>
<text font-size="85" text-anchor="begin" x="485" y="-415">
6
</text>
<text alignment-baseline="middle" font-size="85" text-anchor="end" x="315" y="-400">
W
</text>
<path d="M400,-400 L600,-400" fill="none" stroke="black" stroke-width="10"/>
<text alignment-baseline="bottom" font-size="85" text-anchor="end" transform="rotate(-90, 300, 700) translate(215 685)" x="0" y="0">
7
</text>
<text alignment-baseline="middle" font-size="85" text-anchor="begin" transform="rotate(-90, 300, 615) translate(300 615)">
~G
</text>
<path d="M300,700 L300,900" fill="none" stroke="black" stroke-width="10"/>
<text font-size="85" text-anchor="begin" x="485" y="385">
8
</text>
<text alignment-baseline="middle" font-size="85" text-anchor="end" x="315" y="400">
GND
</text>
<path d="M400,400 L600,400" fill="none" stroke="black" stroke-width="10"/>
<text alignment-baseline="bottom" font-size="85" text-anchor="end" transform="rotate(-90, -400, 700) translate(-485 685)" x="0" y="0">
9
</text>
<text alignment-baseline="middle" font-size="85" text-anchor="begin" transform="rotate(-90, -400, 615) translate(-400 615)">
C
</text>
<path d="M-400,700 L-400,900" fill="none" stroke="black" stroke-width="10"/>
<text alignment-baseline="bottom" font-size="85" text-anchor="end" transform="rotate(-90, -200, 700) translate(-285 685)" x="0" y="0">
10
</text>
<text alignment-baseline="middle" font-size="85" text-anchor="begin" transform="rotate(-90, -200, 615) translate(-200 615)">
B
</text>
<path d="M-200,700 L-200,900" fill="none" stroke="black" stroke-width="10"/>
<text alignment-baseline="bottom" font-size="85" text-anchor="end" transform="rotate(-90, 0, 700) translate(-85 685)" x="0" y="0">
11
</text>
<text alignment-baseline="middle" font-size="85" text-anchor="begin" transform="rotate(-90, 0, 615) translate(0 615)">
A
</text>
<path d="M0,700 L0,900" fill="none" stroke="black" stroke-width="10"/>
<text font-size="85" text-anchor="end" x="-585" y="385">
12
</text>
<text alignment-baseline="middle" font-size="85" text-anchor="begin" x="-415" y="400">
D7
</text>
<path d="M-500,400 L-700,400" fill="none" stroke="black" stroke-width="10"/>
<text font-size="85" text-anchor="end" x="-585" y="185">
13
</text>
<text alignment-baseline="middle" font-size="85" text-anchor="begin" x="-415" y="200">
D6
</text>
<path d="M-500,200 L-700,200" fill="none" stroke="black" stroke-width="10"/>
<text font-size="85" text-anchor="end" x="-585" y="-15">
14
</text>
<text alignment-baseline="middle" font-size="85" text-anchor="begin" x="-415" y="0">
D5
</text>
<path d="M-500,0 L-700,0" fill="none" stroke="black" stroke-width="10"/>
<text font-size="85" text-anchor="end" x="-585" y="-215">
15
</text>
<text alignment-baseline="middle" font-size="85" text-anchor="begin" x="-415" y="-200">
D4
</text>
<path d="M-500,-200 L-700,-200" fill="none" stroke="black" stroke-width="10"/>
<text font-size="85" text-anchor="begin" x="485" y="-1115">
16
</text>
<text alignment-baseline="middle" font-size="85" text-anchor="end" x="315" y="-1100">
VCC
</text>
<path d="M400,-1100 L600,-1100" fill="none" stroke="black" stroke-width="10"/>
</svg>