<?xml version="1.0" encoding="UTF-8" standalone="no"?>
<!-- Created with Inkscape (http://www.inkscape.org/) -->

<svg
   version="1.1"
   id="svg1061"
   width="314.78955"
   height="413.56079"
   viewBox="0 0 314.78956 413.56082"
   sodipodi:docname="cyber_ferris_batteries.svg"
   inkscape:version="1.2.2 (b0a8486541, 2022-12-01)"
   xml:space="preserve"
   xmlns:inkscape="http://www.inkscape.org/namespaces/inkscape"
   xmlns:sodipodi="http://sodipodi.sourceforge.net/DTD/sodipodi-0.dtd"
   xmlns:xlink="http://www.w3.org/1999/xlink"
   xmlns="http://www.w3.org/2000/svg"
   xmlns:svg="http://www.w3.org/2000/svg"><defs
     id="defs1065"><clipPath
       clipPathUnits="userSpaceOnUse"
       id="clipPath1077"><path
         d="M 0,1000 H 1000 V 0 H 0 Z"
         id="path1075" /></clipPath><linearGradient
       id="linearGradient1895"
       y2="65.731728"
       xlink:href="#linearGradient1864"
       x2="55.746918"
       y1="73.646942"
       x1="45.034176"
       gradientTransform="scale(1.6994469,0.58842673)"
       gradientUnits="userSpaceOnUse" /><linearGradient
       id="linearGradient1872"
       y2="44.493706"
       xlink:href="#linearGradient1864"
       x2="57.841484"
       y1="37.696686"
       x1="66.550522"
       gradientTransform="scale(1.6842625,0.5937317)"
       gradientUnits="userSpaceOnUse" /><linearGradient
       id="linearGradient1897"
       y2="79.997139"
       xlink:href="#linearGradient1864"
       x2="63.343006"
       y1="90.677345"
       x1="52.264481"
       gradientTransform="scale(1.5060653,0.66398184)"
       gradientUnits="userSpaceOnUse" /><linearGradient
       id="linearGradient1871"
       y2="36.646652"
       xlink:href="#linearGradient1864"
       x2="105.47061"
       y1="4.4845347"
       x1="151.37276"
       gradientTransform="scale(1.265473,0.79021833)"
       gradientUnits="userSpaceOnUse" /><linearGradient
       id="linearGradient1899"
       y2="48.151142"
       xlink:href="#linearGradient1874"
       x2="103.21046"
       y1="55.61132"
       x1="86.383118"
       gradientTransform="scale(1.1062142,0.90398408)"
       gradientUnits="userSpaceOnUse" /><linearGradient
       id="linearGradient1892"
       y2="97.331436"
       xlink:href="#linearGradient1864"
       x2="54.636169"
       y1="126.38114"
       x1="5.5622025"
       gradientTransform="scale(1.188188,0.84161763)"
       gradientUnits="userSpaceOnUse" /><linearGradient
       id="linearGradient1880"><stop
         id="stop1881"
         offset="0" /><stop
         id="stop1883"
         stop-opacity="0"
         offset="1" /></linearGradient><linearGradient
       id="linearGradient1885"
       y2="149.27806"
       xlink:href="#linearGradient1880"
       x2="66.980507"
       y1="174.77007"
       x1="7.2800622"
       gradientTransform="scale(0.96479964,1.0364846)"
       gradientUnits="userSpaceOnUse" /><linearGradient
       id="linearGradient1874"><stop
         id="stop1875"
         stop-color="#fff"
         stop-opacity="0"
         offset="0" /><stop
         id="stop1877"
         stop-color="#fff"
         stop-opacity=".247"
         offset=".5" /><stop
         id="stop1876"
         stop-color="#fff"
         stop-opacity="0"
         offset="1" /></linearGradient><linearGradient
       id="linearGradient1873"
       y2="186.97189"
       xlink:href="#linearGradient1874"
       x2="286.47403"
       y1="242.99081"
       x1="188.84406"
       gradientTransform="scale(0.81929445,1.2205624)"
       gradientUnits="userSpaceOnUse" /><linearGradient
       id="linearGradient1879"
       y2="74.744156"
       xlink:href="#linearGradient1880"
       x2="269.30994"
       y1="31.230255"
       x1="330.13956"
       gradientTransform="scale(0.74243294,1.346923)"
       gradientUnits="userSpaceOnUse" /><linearGradient
       id="linearGradient1864"><stop
         id="stop1865"
         stop-color="#fff"
         offset="0" /><stop
         id="stop1866"
         stop-color="#fff"
         stop-opacity="0"
         offset="1" /></linearGradient></defs><sodipodi:namedview
     id="namedview1063"
     pagecolor="#ffffff"
     bordercolor="#666666"
     borderopacity="1.0"
     inkscape:showpageshadow="2"
     inkscape:pageopacity="0.0"
     inkscape:pagecheckerboard="0"
     inkscape:deskcolor="#d1d1d1"
     showgrid="false"
     inkscape:zoom="2.6310002"
     inkscape:cx="-1.7103761"
     inkscape:cy="296.27515"
     inkscape:window-width="2411"
     inkscape:window-height="1521"
     inkscape:window-x="680"
     inkscape:window-y="246"
     inkscape:window-maximized="0"
     inkscape:current-layer="svg1061"><inkscape:page
       x="0"
       y="0"
       id="page1067"
       width="314.78955"
       height="413.56082" /></sodipodi:namedview><g
     id="g1069"
     inkscape:groupmode="layer"
     inkscape:label="Page 1"
     transform="matrix(1.3333333,0,0,-1.3333333,-252.11935,797.25978)"><g
       id="g1071"
       transform="translate(-41.619151,-35.917898)" /><g
       id="g1905"
       stroke-width="1.25"
       fill-rule="evenodd"
       transform="matrix(0.75000002,0,0,-0.75000002,185.35207,601.4406)"><path
         id="path1195"
         d="M 146.55,6.7387 C 129.736,6.664775 110.345,9.5394 90.4,15.5855 37.214,31.7085 0.001,64.4705 7.348,88.7075 c 0,0 115.93,305.72 115.96,305.83 7.3472,24.237 57.346,29.138 110.53,13.015 53.186,-16.123 90.399,-48.885 83.052,-73.122 L 199.61,23.1105 c -5.9665,-10.906 -27.607,-16.26 -53.065,-16.371 z" /><path
         id="path1217"
         fill="#eca548"
         d="M 120.78,88.382 C 67.594,104.505 19.34,104.981 9.69,90.1344 c 0,0 27.567,75.464 27.602,75.58 7.3471,24.237 54.797,29.138 107.98,13.015 53.186,-16.123 90.399,-48.885 83.052,-73.122 l -30.091,-81.831 c -1.7184,23.929 -20.978,44.115 -77.457,64.605 z" /><path
         id="path1842"
         fill="#dcdcdc"
         d="M 20.023,80.715 C 3.03,33.985 164.463,0 181.453,22.09 202.694,67.121 47.213,107.903 20.023,80.715 Z" /><path
         id="path1839"
         fill="#eca548"
         d="m 140.95,8.2733 c -17.224,0.62831 -35.446,3.6109 -50.102,9.0274 -60.324,17.842 -88.367,52.608 -82.42,69.601 11.895,28.888 82.07,14.242 116.9,2.3471 53.527,-17.842 77.497,-45.907 72.4,-65.448 -2.1241,-11.152 -28.075,-16.574 -56.782,-15.527 z m 3.0693,14.715 c 14.484,-1.0222 25.579,0.82309 28.978,6.7705 13.594,22.09 -123.28,73.918 -138.57,43.331 -8.2839,-18.48 66.142,-47.035 109.59,-50.102 z" /><path
         id="path1843"
         d="m 201.39,25.877 -3.9184,-3.9771 c 1.675,6.2073 -0.19113,17.286 -3.5305,23.476 -3.3393,6.1901 -8.9842,12.335 -16.34,18.145 -14.711,11.62 -36.169,21.859 -58.949,28.978 -22.779,7.1186 -46.891,11.151 -66.893,10.562 -20.002,-0.58904 -37.532,-6.8794 -44.02,-17.496 l -0.6294,3.8477 c 7.531,12.324 23.99,16.654 44.559,17.259 20.568,0.60574 44.966,-3.5236 68.066,-10.743 23.101,-7.219 44.884,-17.573 60.122,-29.61 7.6194,-6.0185 13.662,-12.425 17.332,-19.228 3.6702,-6.8034 6.135,-14.04 4.199,-21.214 z" /><path
         id="path1886"
         d="M 153.32,20.821 C 130.5,20.63774 108.266,27.2172 86.947,34.787 69.649,41.4589 52.012,45.745 37.702,60.711 c -5.0576,3.812 -8.4758,11.533 -3.0624,16.569 8.1299,9.1072 21.685,9.0785 32.921,8.2515 25.35,-2.7305 49.664,-11.687 72.437,-22.859 11.813,-6.3073 24.305,-12.779 32.672,-23.553 4.1938,-4.7047 2.3507,-12.048 -3.3357,-14.512 -4.8351,-2.7676 -10.534,-3.5454 -16.014,-3.7867 z m -10.02,3.7915 c 8.7902,-0.41531 18.858,-1.0739 26.224,4.6149 5.353,5.7308 -3.5719,11.869 -7.4918,15.595 -17.526,13.346 -38.085,22.11 -58.832,29.141 -17.13,5.262 -35.225,10.19 -53.259,7.4833 -6.0492,-1.0798 -14.452,-4.7006 -14.607,-10.918 0.75495,-6.1615 8.1928,-12.11 13.437,-15.88 22.332,-13.471 47.683,-20.452 72.971,-26.534 7.1038,-1.6089 14.294,-2.8988 21.558,-3.5024 z" /><path
         id="path1856"
         fill="#c8c8c8"
         stroke="#000000"
         d="M 88.864,22.717 C 73.542,27.916 62.832,37.172 64.942,43.39 l 6.8695,14.552 c 2.3756,6.0095 15.912,6.0201 31.046,0.88528 15.322,-5.199 26.032,-14.455 23.922,-20.673 -0.15823,-0.46633 -6.2544,-13.44 -6.3192,-13.631 -1.0549,-3.1089 -14.874,-8.2882 -31.596,-1.8055 z" /><path
         id="path1860"
         d="m 118.84,23.312 c -0.79966,2.9703 -3.6474,6.7147 -7.8538,9.6056 -4.2064,2.8909 -9.7411,5.4467 -15.437,7.4025 -5.6957,1.9557 -11.537,3.3303 -16.61,3.8818 -5.0731,0.55143 -10.256,0.75001 -12.892,-2.0036 l -0.405,3.5477 c 3.284,1.5556 8.2561,2.5639 13.658,1.9767 5.4022,-0.58718 11.487,-1.9339 17.423,-3.972 5.9357,-2.0382 11.662,-4.7013 16.249,-7.8538 4.5872,-3.1526 8.868,-5.9011 9.2982,-11.194 L 118.84,23.3122 Z" /><path
         id="path1872"
         fill="url(#linearGradient1873)"
         d="m 64.297,105.43 c 39.319,-1.7542 80.91,-15.45 113.21,-36.761 0.0915,0.40506 119.9,306.61 119.8,306.72 -4.9802,6.9408 -57.366,37.415 -107.54,40.412 0,0 -125.47,-310.37 -125.47,-310.37 z"
         style="fill:url(#linearGradient1873)" /><path
         id="path1878"
         fill="url(#linearGradient1879)"
         d="m 201.96,33.959 27.484,74.768 c 2.5756,17.385 -20.991,41.087 -35.336,48.688 -3.3985,-8.4964 -32.519,-79.892 -32.519,-79.892 11.59,-3.8634 37.142,-23.325 40.371,-43.564 z"
         style="fill:url(#linearGradient1879)" /><path
         id="path1884"
         fill="url(#linearGradient1885)"
         d="m 10.832,93.234 28.654,78.556 c 12.234,15.776 31.229,17.707 59.883,16.098 0.32194,0.32196 -24.468,-83.064 -24.468,-83.064 -17.707,2.8976 -50.868,2.2537 -64.068,-11.59 z"
         style="fill:url(#linearGradient1885)" /><path
         id="path1891"
         fill="url(#linearGradient1892)"
         d="M 47.754,35.734 C 40.3092,38.4142 2.787,65.513 8.148,85.168 c 8.3382,22.037 64.323,20.548 94.4,11.912 C 83.489,89.6352 39.416,80.999 47.754,35.735 Z"
         style="fill:url(#linearGradient1892)" /><path
         id="path1893"
         fill="url(#linearGradient1895)"
         d="m 77.809,30.091 c 0,0 -12.188,4.4524 -11.294,12.791 7.147,5.9558 39.606,-4.7647 41.989,-8.636 -14.033,2.7963 -25.08,7.3649 -30.694,-4.1546 z"
         style="fill:url(#linearGradient1895)" /><path
         id="path1896"
         fill="url(#linearGradient1897)"
         d="m 69.195,47.348 c 0,0 2.9779,9.2316 5.9558,11.912 10.72,3.5735 19.059,-0.2978 24.419,-1.4889 -19.654,-0.89338 -19.654,-9.5294 -30.375,-10.423 z"
         style="fill:url(#linearGradient1897)" /><path
         id="path1898"
         fill="url(#linearGradient1899)"
         d="m 92.721,44.668 c 7.147,-1.489 16.379,-5.9558 21.441,-9.8272 1.7868,2.3823 6.2536,11.912 6.2536,11.912 -2.0845,3.5735 -11.316,9.2316 -19.059,10.72 -1.489,-1.7868 -8.636,-12.805 -8.636,-12.805 z"
         style="fill:url(#linearGradient1899)" /><path
         id="path1869"
         fill="url(#linearGradient1872)"
         d="m 86.308,25.989 c 0,0 23.569,-7.9895 31.559,-1.1984 -1.5979,4.7937 -3.9948,7.1906 -8.389,8.389 -4.3942,-1.9974 1.5979,-10.786 -23.17,-7.1906 z"
         style="fill:url(#linearGradient1872)" /><path
         id="path1870"
         fill="url(#linearGradient1871)"
         d="m 89.904,16.801 c 31.159,-9.5874 100.27,-14.781 107.86,7.1906 4.3943,17.577 -13.183,39.548 -39.548,52.331 21.971,-29.162 -17.177,-63.916 -68.31,-59.522 z"
         style="fill:url(#linearGradient1871)" /><path
         id="path1876"
         d="m 146.73,4.6624 c -17.026,-0.074855 -36.588,2.8429 -56.692,8.9371 -26.58,8.0573 -49.188,20.165 -64.456,33.492 -14.994,13.087 -23.021,27.513 -19.95,40.443 0.014031,0.05912 -0.014521,0.12147 0,0.18054 0.79065,3.1627 115.97,307 116,307.11 2.7836,9.1825 11.229,15.579 22.839,19.319 11.254,3.6254 25.761,4.7535 41.887,3.7012 10.806,-1.0542 43.789,-6.6728 48.116,-8.8468 17.366,-5.2642 33.796,-12.646 46.823,-20.575 6.7138,-4.5618 11.056,-7.0151 16.188,-12.104 7.9408,-6.7329 14.26,-13.705 18.055,-20.763 3.9827,-7.407 5.3587,-14.98 3.2499,-21.936 l -116.22,-309.87 c -3.3636,-6.1479 -11.984,-12.068 -21.539,-14.844 -9.5548,-2.776 -21.451,-4.1864 -34.304,-4.2429 z m 0,3.6109 c 12.606,0.055407 24.136,1.423 33.221,4.0623 9.0843,2.6393 15.542,6.6167 18.145,11.374 l 117.18,310.99 c 1.7732,5.8493 0.69141,12.312 -2.979,19.138 -3.6705,6.8264 -9.8829,13.942 -18.145,20.763 -3.1626,1.8449 -10.654,8.0435 -15.708,11.013 -6.0618,3.4262 -27.891,14.777 -44.956,19.95 -14.702,4.0308 -29.139,7.271 -44.895,8.9299 -16.413,1.2109 -32.073,-0.25433 -43.032,-3.7843 -10.958,-3.5299 -18.069,-9.2752 -20.402,-16.971 l -116,-306.39 c -2.9931,-11.063 4.0228,-24.585 18.777,-37.464 14.754,-12.878 36.944,-24.93 63.101,-32.86 19.786,-5.9979 39.096,-8.8296 55.699,-8.7566 z" /></g></g><circle
     style="fill:#f5d2a3;stroke-width:1;fill-opacity:1"
     id="path229"
     cx="181.91016"
     cy="269.96927"
     r="95" /><g
     id="g1073"
     clip-path="url(#clipPath1077)"
     transform="matrix(1.2084103,-0.56349103,-0.56349103,-1.2084103,55.030519,1060.4298)"><g
       id="g1079"
       transform="translate(332.0972,503.2114)"><path
         d="m 0,0 c 0,-3.035 -2.46,-5.495 -5.495,-5.495 -3.034,0 -5.494,2.46 -5.494,5.495 0,3.035 2.46,5.495 5.494,5.495 C -2.46,5.495 0,3.035 0,0"
         style="fill:#231f20;fill-opacity:1;fill-rule:nonzero;stroke:none"
         id="path1081" /></g><g
       id="g1083"
       transform="translate(355.0522,503.2114)"><path
         d="m 0,0 c 0,-3.035 -2.46,-5.495 -5.495,-5.495 -3.034,0 -5.494,2.46 -5.494,5.495 0,3.035 2.46,5.495 5.494,5.495 C -2.46,5.495 0,3.035 0,0"
         style="fill:#231f20;fill-opacity:1;fill-rule:nonzero;stroke:none"
         id="path1085" /></g><g
       id="g1087"
       transform="translate(344.8325,484.21)"><path
         d="m 0,0 -9.45,-35.75 h -5.29 L -5.29,0 Z"
         style="fill:#e43c26;fill-opacity:1;fill-rule:nonzero;stroke:none"
         id="path1089" /></g><g
       id="g1091"
       transform="translate(380.6621,497.6797)"><path
         d="m 0,0 c -11.53,-3.109 -26.28,-4.979 -42.35,-4.979 -16.05,0 -30.78,1.87 -42.32,4.969 v 0.05 c 0.06,0.641 0.15,1.271 0.23,1.91 0.7,4.73 2.18,9.2 4.29,13.29 1.3,2.49 4.64,3.031 6.65,1.06 1.37,-1.35 3.18,-2.04 4.98,-2.04 1.64,0 3.27,0.57 4.53,1.79 2.72,2.62 2.73,6.95 0.04,9.58 -0.92,0.92 -1.37,2.09 -1.37,3.27 0,1.6 0.84,3.2 2.42,4.07 2.56,1.43 5.29,2.59 8.15,3.46 2.86,0.87 5.73,-1.32 5.73,-4.3 0,-1.78 0.67,-3.44 1.79,-4.69 1.11,-1.25 2.68,-2.09 4.45,-2.2 3.89,-0.26 7.12,2.83 7.12,6.67 0,2.65 2.18,4.631 4.66,4.631 0.48,0 0.96,-0.071 1.43,-0.221 2.87,-0.9 5.6,-2.1 8.18,-3.57 2.51,-1.42 2.92,-4.89 0.86,-6.92 -1.41,-1.37 -2.16,-3.23 -2.16,-5.09 0,-1.39 0.43,-2.77 1.33,-3.94 2.5,-3.22 7.16,-3.47 9.98,-0.7 0.87,0.85 1.98,1.26 3.08,1.26 1.56,0 3.11,-0.819 3.89,-2.38 2.06,-4.01 3.49,-8.4 4.17,-13.03 C -0.15,1.311 -0.07,0.681 0,0.04 H -0.02 Z M 22.32,2.541 16.69,1.91 c 0.03,0.01 0.05,0.03 0.07,0.04 C 13.85,2.68 11.2,4.31 9.22,6.61 8,8.021 7.04,9.69 6.43,11.58 c -0.6,1.88 -0.81,3.78 -0.66,5.63 0.23,3.04 1.43,5.92 3.36,8.24 -2.99,-0.51 -6.1,-0.1 -8.86,1.23 -1.65,0.79 -3.18,1.92 -4.5,3.38 -1.3,1.44 -2.27,3.09 -2.88,4.81 -1.03,2.88 -1.12,6.02 -0.3,8.94 -2.51,-1.68 -5.5,-2.57 -8.56,-2.48 -1.85,0.05 -3.72,0.461 -5.51,1.26 -1.8,0.79 -3.36,1.92 -4.64,3.27 -2.09,2.21 -3.43,5.02 -3.87,8 -1.6,-2.55 -3.97,-4.569 -6.77,-5.74 -1.72,-0.7 -3.6,-1.099 -5.58,-1.099 -1.98,0 -3.86,0.399 -5.57,1.099 -2.82,1.171 -5.18,3.19 -6.79,5.74 -0.43,-2.98 -1.77,-5.79 -3.85,-8 -1.29,-1.35 -2.84,-2.48 -4.65,-3.27 -1.8,-0.799 -3.67,-1.21 -5.52,-1.26 -3.04,-0.09 -6.04,0.8 -8.55,2.48 0.82,-2.92 0.74,-6.06 -0.31,-8.95 -0.61,-1.71 -1.56,-3.36 -2.88,-4.8 -1.29,-1.46 -2.82,-2.58 -4.49,-3.38 -2.76,-1.33 -5.87,-1.74 -8.86,-1.23 1.94,-2.33 3.12,-5.21 3.35,-8.26 0.16,-1.84 -0.04,-3.74 -0.65,-5.61 -0.61,-1.88 -1.56,-3.539 -2.78,-4.96 -1.98,-2.31 -4.63,-3.93 -7.55,-4.67 0.02,-0.01 0.04,-0.03 0.07,-0.04 l -5.64,0.631 c -2.68,0.299 -4.91,-2.011 -4.53,-4.681 l 3.08,-21.099 22.23,-11.881 -12.28,19.2 5.33,4.26 12.52,-18.159 18.53,-12.691 h 10.78 l -16.92,12.691 16.92,12.689 h -10.78 l -12.79,-8.76 -11.17,16.27 H 1.39 l -11.16,-16.27 -12.8,8.76 h -10.78 l 16.92,-12.689 -16.92,-12.691 h 10.78 l 18.53,12.691 12.52,18.17 5.34,-4.271 -12.28,-19.2 22.23,11.881 3.07,21.099 C 27.23,0.53 25,2.84 22.32,2.541"
         style="fill:#e43c26;fill-opacity:1;fill-rule:nonzero;stroke:none"
         id="path1093" /></g></g></svg>
