<?xml version="1.0" encoding="UTF-8" standalone="no"?>
<!-- Created with Inkscape (http://www.inkscape.org/) -->

<svg
   version="1.1"
   id="svg1061"
   width="572.88428"
   height="664.09637"
   viewBox="0 0 572.88431 664.09641"
   sodipodi:docname="cyber_ferris_powerful.svg"
   inkscape:version="1.2.2 (b0a8486541, 2022-12-01)"
   xml:space="preserve"
   xmlns:inkscape="http://www.inkscape.org/namespaces/inkscape"
   xmlns:sodipodi="http://sodipodi.sourceforge.net/DTD/sodipodi-0.dtd"
   xmlns="http://www.w3.org/2000/svg"
   xmlns:svg="http://www.w3.org/2000/svg"><defs
     id="defs1065"><clipPath
       clipPathUnits="userSpaceOnUse"
       id="clipPath1077"><path
         d="M 0,1000 H 1000 V 0 H 0 Z"
         id="path1075" /></clipPath></defs><sodipodi:namedview
     id="namedview1063"
     pagecolor="#ffffff"
     bordercolor="#666666"
     borderopacity="1.0"
     inkscape:showpageshadow="2"
     inkscape:pageopacity="0.0"
     inkscape:pagecheckerboard="0"
     inkscape:deskcolor="#d1d1d1"
     showgrid="false"
     inkscape:zoom="1.3155001"
     inkscape:cx="266.81867"
     inkscape:cy="432.15503"
     inkscape:window-width="1855"
     inkscape:window-height="1345"
     inkscape:window-x="589"
     inkscape:window-y="300"
     inkscape:window-maximized="0"
     inkscape:current-layer="svg1061"><inkscape:page
       x="0"
       y="0"
       id="page1067"
       width="572.88434"
       height="664.09644" /></sodipodi:namedview><g
     id="g1069"
     inkscape:groupmode="layer"
     inkscape:label="Page 1"
     transform="matrix(1.3333333,0,0,-1.3333333,19.718128,1017.5111)"><g
       id="g1931"
       transform="matrix(4.0378165,0,0,-4.0378165,-67.038777,777.62146)"><path
         d="m 112.28,65.24 c -0.46,-0.79 -1.05,-1.53 -1.9,-2.21 -6.65,-5.33 -18.68,-5.59 -27.01,-4.71 -7.22,0.76 -13.41,4.03 -18.65,9 -1.89,1.8 -3.46,3.8 -5.36,5.62 -1.31,1.25 -2.64,3.37 -4.28,4.19 -2.74,1.36 -3.21,-0.24 -3.21,-2.72 0.03,-5.6 0.91,-10.74 1.6,-16.21 0.35,-2.83 0.77,-5.6 1.09,-8.42 0.29,-2.65 1.14,-3.14 3.74,-3.21 4.79,-0.13 9.67,-0.59 14.06,-2.01 4.38,-1.41 9.12,-3.35 13.79,-3.35 2.55,0 4.51,1.4 6.96,1.61 2.34,0.2 4.63,0.08 6.82,-0.67 2.21,-0.76 6.52,-2.34 7.57,-4.69 0.8,-1.8 -0.3,-4.28 -0.49,-5.86 -0.27,-2.33 -2.16,-2.71 -3.09,-4.88 -0.84,-1.94 -0.17,-4.15 -1.31,-5.83 -1.11,-1.65 -1.36,-4.05 -2.12,-5.9 C 99.75,13.14 99.08,11.14 98.08,9.5 96.75,7.32 96.09,6.13 93.62,5.33 92.04,4.82 90.52,3.9 88.84,3.71 84.45,3.22 79.88,4.27 75.97,5.74 70.3,7.88 64.25,9.88 59.22,13.36 c -3.59,2.48 -7.03,4.95 -10.57,7.63 -1.99,1.51 -4.18,2.82 -5.92,4.57 -0.23,0.23 -0.46,0.51 -0.69,0.8 -3.87,1.36 -8.54,13.05 -10.31,15.87 -4.1,6.54 -8.62,12.81 -11.97,19.79 -5.57,11.65 -9.39,27.79 -4.73,40.39 1.78,4.82 6.4,10.02 11.76,10.6 5.86,0.64 11.45,1.08 17.17,3.05 3.89,1.34 7.72,2.94 11.77,3.77 4.93,1 9.99,0.65 15,0.65 5.11,0 4.95,0.56 10.8,0.77 1.15,0.04 3.92,0.31 5.07,0.23 l 2.2,0.08 30.53,1.07 V 68.52 Z m -72.73,-36.36 1.32,-1.1 c -0.39,0.45 -0.81,0.86 -1.32,1.1 z"
         style="fill:#fcc21b"
         id="path1919" /><g
         id="g1929"><g
           id="g1925"><path
             d="m 105.05,26.57 c -1.49,-6.08 -0.82,-4.93 -4.5,-14.26 -2.76,-7.01 -7.59,-8.63 -12.88,-8.7 1.63,0.2 3.21,0.43 4.62,1.48 1.42,1.04 2.47,5.38 3.36,6.98 0.47,0.85 0.96,2.1 1.4,3.28 0.61,1.7 1.08,3.26 1.08,3.26 1.08,2.9 2.11,6.73 2.26,7.23 0.07,0.21 0.08,0.4 0.07,0.58 -0.01,0.23 -0.07,0.43 -0.16,0.61 -0.23,0.43 -0.63,0.74 -1.08,0.93 -0.79,0.33 -2.15,0.43 -2.82,-0.54 -0.66,-0.96 -1.93,-4.03 -2.19,-4.96 l -2.43,-6.21 c 0,0 -0.52,-0.98 -1.36,-1.19 -0.67,-0.17 -1.76,0.14 -2.14,0.74 -0.49,0.77 -0.1,1.93 -0.1,1.93 0,0 4.23,10.74 4.43,11.32 0.38,1.11 -0.33,1.77 -1.1,2.13 -0.79,0.34 -2.13,0.46 -2.8,-0.48 C 88.05,29.8 84,20.13 83.7,19.42 l -0.03,-0.08 c 0,0 -0.52,-0.98 -1.36,-1.18 -0.67,-0.17 -1.77,0.13 -2.14,0.74 -0.59,0.97 -0.15,1.96 -0.15,1.96 0.88,1.95 4.89,10.82 5.08,11.34 0.41,1.07 -0.26,1.75 -1.01,2.12 -0.75,0.36 -2.07,0.53 -2.77,-0.37 -0.7,-0.9 -5.89,-11.22 -5.89,-11.22 0,0 -0.61,-0.92 -1.47,-1.04 -0.68,-0.1 -1.79,0.29 -2.05,0.95 -0.31,0.8 0.09,1.94 0.09,1.94 0,0 5.2,10.44 5.48,11 0.52,1.07 -0.1,1.82 -0.84,2.27 -0.74,0.44 -2.07,0.73 -2.88,-0.13 -0.64,-0.69 -4.82,-7.92 -6.53,-10.88 -3.26,2.51 -1.34,5.81 -0.73,7.76 0.37,1.16 0.45,5.11 -1.47,6.85 -1.3,1.18 -2.82,1.45 -4.01,1.44 -0.57,-0.05 -1.15,-0.13 -1.72,-0.22 -0.14,-0.03 -0.24,-0.07 -0.24,-0.07 0,0 0.04,0.03 0.06,0.04 -1.14,-0.16 -2.28,-0.36 -3.46,-0.64 -0.95,-0.23 -1.93,-0.02 -2.71,0.54 -0.79,0.56 -1.29,1.44 -1.38,2.4 L 48.31,80.6 c -0.08,0.89 0.99,3.47 1.56,4.15 2.11,-3.83 2.49,-4.62 5.74,-7.94 -0.02,0.03 0.43,-7.67 0.43,-7.67 l 1.82,-19.93 c 12.12,1.85 22.13,-1.62 26.41,-3.48 2.83,1.91 8.64,3.62 19.47,-0.9 0.14,-0.06 0.26,-0.13 0.39,-0.19 3.54,-1.62 4.97,-4.14 5.52,-6.01 1.43,-4.93 -3.5,-10.28 -4.6,-12.06 z m -1.16,8.21 c -0.08,0.52 -0.28,0.97 -0.56,1.38 -0.62,0.9 -1.59,1.54 -2.42,1.89 -2.82,1.18 -5.25,2.18 -5.85,2.33 -2.25,0.58 -3.41,0.01 -3.97,-1 -0.56,-1.01 -0.84,-2.78 0.46,-3.76 1.05,-0.79 7.63,-3.84 10.15,-5 0.6,-0.28 0.98,-0.45 0.98,-0.45 0,0 1.57,2.01 1.21,4.61 z"
             style="fill:#e48c15"
             id="path1921" /><path
             d="m 119.35,120.28 c -45.93,-0.39 -86.23,-7.46 -93.17,-9.4 -4.4,-1.23 -11.63,-9.63 -12.24,-12.13 2.81,10.37 10.59,16.64 14.68,18.87 4.09,2.23 46.59,8.95 90.72,9.32 v -6.66 z"
             style="fill:#e48c15"
             id="path1923" /></g><path
           d="m 108.47,90.17 c -6.75,4.8 -16.61,5.82 -23.69,5.82 -6.62,0 -11.71,-0.87 -11.76,-0.88 -0.75,-0.13 -1.5,0.27 -1.81,0.96 -0.31,0.7 -0.1,1.52 0.5,1.99 0.39,0.3 9.66,7.38 21.96,7.38 1.96,0 3.91,-0.18 5.81,-0.55 9.34,-1.79 11.68,-9.54 11.62,-13.39 -0.01,-0.62 -0.36,-1.18 -0.91,-1.46 -0.56,-0.28 -1.22,-0.23 -1.72,0.13 z"
           style="fill:#e48c15"
           id="path1927" /></g></g></g><g
     id="g1071"
     transform="matrix(1.3333333,0,0,-1.3333333,-35.774072,1065.4016)"><circle
       style="display:inline;fill:#ffeeaa;stroke-width:0.75"
       id="path229"
       cx="296.7308"
       cy="-460.60471"
       transform="matrix(1,0,0,-1,41.619151,35.917898)"
       r="71.25" /><g
       id="g1073"
       clip-path="url(#clipPath1077)"><g
         id="g1079"
         transform="translate(332.0972,503.2114)"><path
           d="m 0,0 c 0,-3.035 -2.46,-5.495 -5.495,-5.495 -3.034,0 -5.494,2.46 -5.494,5.495 0,3.035 2.46,5.495 5.494,5.495 C -2.46,5.495 0,3.035 0,0"
           style="fill:#231f20;fill-opacity:1;fill-rule:nonzero;stroke:none"
           id="path1081" /></g><g
         id="g1083"
         transform="translate(355.0522,503.2114)"><path
           d="m 0,0 c 0,-3.035 -2.46,-5.495 -5.495,-5.495 -3.034,0 -5.494,2.46 -5.494,5.495 0,3.035 2.46,5.495 5.494,5.495 C -2.46,5.495 0,3.035 0,0"
           style="fill:#231f20;fill-opacity:1;fill-rule:nonzero;stroke:none"
           id="path1085" /></g><g
         id="g1087"
         transform="translate(344.8325,484.21)"><path
           d="m 0,0 -9.45,-35.75 h -5.29 L -5.29,0 Z"
           style="fill:#e43c26;fill-opacity:1;fill-rule:nonzero;stroke:none"
           id="path1089" /></g><g
         id="g1091"
         transform="translate(380.6621,497.6797)"><path
           d="m 0,0 c -11.53,-3.109 -26.28,-4.979 -42.35,-4.979 -16.05,0 -30.78,1.87 -42.32,4.969 v 0.05 c 0.06,0.641 0.15,1.271 0.23,1.91 0.7,4.73 2.18,9.2 4.29,13.29 1.3,2.49 4.64,3.031 6.65,1.06 1.37,-1.35 3.18,-2.04 4.98,-2.04 1.64,0 3.27,0.57 4.53,1.79 2.72,2.62 2.73,6.95 0.04,9.58 -0.92,0.92 -1.37,2.09 -1.37,3.27 0,1.6 0.84,3.2 2.42,4.07 2.56,1.43 5.29,2.59 8.15,3.46 2.86,0.87 5.73,-1.32 5.73,-4.3 0,-1.78 0.67,-3.44 1.79,-4.69 1.11,-1.25 2.68,-2.09 4.45,-2.2 3.89,-0.26 7.12,2.83 7.12,6.67 0,2.65 2.18,4.631 4.66,4.631 0.48,0 0.96,-0.071 1.43,-0.221 2.87,-0.9 5.6,-2.1 8.18,-3.57 2.51,-1.42 2.92,-4.89 0.86,-6.92 -1.41,-1.37 -2.16,-3.23 -2.16,-5.09 0,-1.39 0.43,-2.77 1.33,-3.94 2.5,-3.22 7.16,-3.47 9.98,-0.7 0.87,0.85 1.98,1.26 3.08,1.26 1.56,0 3.11,-0.819 3.89,-2.38 2.06,-4.01 3.49,-8.4 4.17,-13.03 C -0.15,1.311 -0.07,0.681 0,0.04 H -0.02 Z M 22.32,2.541 16.69,1.91 c 0.03,0.01 0.05,0.03 0.07,0.04 C 13.85,2.68 11.2,4.31 9.22,6.61 8,8.021 7.04,9.69 6.43,11.58 c -0.6,1.88 -0.81,3.78 -0.66,5.63 0.23,3.04 1.43,5.92 3.36,8.24 -2.99,-0.51 -6.1,-0.1 -8.86,1.23 -1.65,0.79 -3.18,1.92 -4.5,3.38 -1.3,1.44 -2.27,3.09 -2.88,4.81 -1.03,2.88 -1.12,6.02 -0.3,8.94 -2.51,-1.68 -5.5,-2.57 -8.56,-2.48 -1.85,0.05 -3.72,0.461 -5.51,1.26 -1.8,0.79 -3.36,1.92 -4.64,3.27 -2.09,2.21 -3.43,5.02 -3.87,8 -1.6,-2.55 -3.97,-4.569 -6.77,-5.74 -1.72,-0.7 -3.6,-1.099 -5.58,-1.099 -1.98,0 -3.86,0.399 -5.57,1.099 -2.82,1.171 -5.18,3.19 -6.79,5.74 -0.43,-2.98 -1.77,-5.79 -3.85,-8 -1.29,-1.35 -2.84,-2.48 -4.65,-3.27 -1.8,-0.799 -3.67,-1.21 -5.52,-1.26 -3.04,-0.09 -6.04,0.8 -8.55,2.48 0.82,-2.92 0.74,-6.06 -0.31,-8.95 -0.61,-1.71 -1.56,-3.36 -2.88,-4.8 -1.29,-1.46 -2.82,-2.58 -4.49,-3.38 -2.76,-1.33 -5.87,-1.74 -8.86,-1.23 1.94,-2.33 3.12,-5.21 3.35,-8.26 0.16,-1.84 -0.04,-3.74 -0.65,-5.61 -0.61,-1.88 -1.56,-3.539 -2.78,-4.96 -1.98,-2.31 -4.63,-3.93 -7.55,-4.67 0.02,-0.01 0.04,-0.03 0.07,-0.04 l -5.64,0.631 c -2.68,0.299 -4.91,-2.011 -4.53,-4.681 l 3.08,-21.099 22.23,-11.881 -12.28,19.2 5.33,4.26 12.52,-18.159 18.53,-12.691 h 10.78 l -16.92,12.691 16.92,12.689 h -10.78 l -12.79,-8.76 -11.17,16.27 H 1.39 l -11.16,-16.27 -12.8,8.76 h -10.78 l 16.92,-12.689 -16.92,-12.691 h 10.78 l 18.53,12.691 12.52,18.17 5.34,-4.271 -12.28,-19.2 22.23,11.881 3.07,21.099 C 27.23,0.53 25,2.84 22.32,2.541"
           style="fill:#e43c26;fill-opacity:1;fill-rule:nonzero;stroke:none"
           id="path1093" /></g></g></g></svg>
